# xmcd CD database file
#
# Track frame offsets:
#	150
#	23825
#	48650
#	71205
#	106195
#
# Disc length: 1565 seconds
#
# Revision: 0
# Processed by: cddbd v1.5.2PL0 Copyright (c) Steve Scherf et al.
# Submitted via: CDex 1.51
#
DISCID=40061b05
DTITLE=Adrian Byron Burns - The Hull Sessions
DYEAR=1900
DGENRE=Blues
TTITLE0=Down By The River (Neil Young)
TTITLE1=Dixie Chicken (Lowell George)
TTITLE2=Comin' Down In The Rain (Buddy Mondock)
TTITLE3=Superstition (Stevland Morris)
TTITLE4=Video - Bill Wyman's Rhythm Kings Featuring Adrian Byron Burns
EXTD=
EXTT0=
EXTT1=
EXTT2=
EXTT3=
EXTT4=
PLAYORDER=
